<?xml version="1.0" encoding="UTF-8"?>
<!DOCTYPE svg PUBLIC "-//W3C//DTD SVG 1.1//EN" "http://www.w3.org/Graphics/SVG/1.1/DTD/svg11.dtd">
<svg version="1.1" xmlns="http://www.w3.org/2000/svg" x="0" y="0"
     width="2560" height="2560" viewBox="0, 0, 512, 512">
    <g id="Background">
        <rect x="0" y="0" width="512" height="512" fill="#FFFFFF"/>
    </g>
    <g id="Layer_1">
        <path d="M393.248,159.795 L359.365,193.678 C415.837,250.151 415.837,342.121 359.365,398.594 C302.892,455.067 210.922,455.067 154.449,398.594 C97.976,342.121 97.976,250.151 154.449,193.678 L154.449,193.678 L244.805,103.322 L256.1,90.414 L256.1,90.414 L256.1,22.646 L118.952,159.795 C43.117,235.629 43.117,356.643 118.952,432.478 C194.787,508.312 315.8,508.312 391.635,432.478 C469.083,356.643 469.083,234.016 393.248,159.795 z"
              fill="#009CE8"/>
        <path d="M436.193,91.87 L436.193,131.75 L333.953,131.75 L333.953,225.87 L290.633,225.87 L290.633,91.87 L436.193,91.87 z"
              fill="#009CE8"/>
        <g>
            <path d="M313.663,226.37 L334.836,206.878" fill="#FFFFFF"/>
            <path d="M313.663,226.37 L334.836,206.878" fill-opacity="0" stroke="#FFFFFF" stroke-width="40.5"
                  stroke-linecap="square"/>
        </g>
        <g>
            <path d="M414.049,134.822 L450.424,101.335" fill="#FFFFFF"/>
            <path d="M414.049,134.822 L450.424,101.335" fill-opacity="0" stroke="#FFFFFF" stroke-width="40.5"
                  stroke-linecap="square"/>
        </g>
    </g>
</svg>
